REM DIRINDEX 1\2,1\3,1\4
REM DIRNAME cjc085,folder01,folder02,folder03
TITLE ""
FILE "Disc1Track11.mp3" MP3
  TRACK 01 AUDIO
    TITLE "0:"
    INDEX 01 00:00:00
  TRACK 02 AUDIO
    TITLE "4:cjc085_0634"
    INDEX 01 00:05:09
  TRACK 03 AUDIO
    TITLE "0:"
    INDEX 01 00:08:05
  TRACK 04 AUDIO
    TITLE "4:cjc085_0635"
    INDEX 01 00:09:06
  TRACK 05 AUDIO
    TITLE "0:"
    INDEX 01 00:10:68
  TRACK 06 AUDIO
    TITLE "4:cjc085_0636"
    INDEX 01 00:11:50
  TRACK 07 AUDIO
    TITLE "2:cjc085_0637"
    INDEX 01 00:13:63
  TRACK 08 AUDIO
    TITLE "0:"
    INDEX 01 00:16:61
  TRACK 09 AUDIO
    TITLE "3:cjc085_0638"
    INDEX 01 00:17:55
  TRACK 10 AUDIO
    TITLE "0:"
    INDEX 01 00:21:13
  TRACK 11 AUDIO
    TITLE "4:cjc085_0639"
    INDEX 01 00:21:41
  TRACK 12 AUDIO
    TITLE "2:cjc085_0640"
    INDEX 01 00:23:46
  TRACK 13 AUDIO
    TITLE "0:"
    INDEX 01 00:26:67
  TRACK 14 AUDIO
    TITLE "3:cjc085_0641"
    INDEX 01 00:27:24
  TRACK 15 AUDIO
    TITLE "0:"
    INDEX 01 00:31:51
  TRACK 16 AUDIO
    TITLE "4:cjc085_0642"
    INDEX 01 00:32:07
  TRACK 17 AUDIO
    TITLE "2:cjc085_0643"
    INDEX 01 00:34:00
  TRACK 18 AUDIO
    TITLE "0:"
    INDEX 01 00:38:57
  TRACK 19 AUDIO
    TITLE "3:cjc085_0644"
    INDEX 01 00:39:21
  TRACK 20 AUDIO
    TITLE "0:"
    INDEX 01 00:44:48
  TRACK 21 AUDIO
    TITLE "4:cjc085_0645"
    INDEX 01 00:45:18
  TRACK 22 AUDIO
    TITLE "2:cjc085_0646"
    INDEX 01 00:47:36
  TRACK 23 AUDIO
    TITLE "0:"
    INDEX 01 00:51:73
  TRACK 24 AUDIO
    TITLE "3:cjc085_0647"
    INDEX 01 00:52:36
  TRACK 25 AUDIO
    TITLE "0:"
    INDEX 01 00:57:17
  TRACK 26 AUDIO
    TITLE "4:cjc085_0648"
    INDEX 01 00:57:39
  TRACK 27 AUDIO
    TITLE "2:cjc085_0649"
    INDEX 01 00:59:59
  TRACK 28 AUDIO
    TITLE "0:"
    INDEX 01 01:03:18
  TRACK 29 AUDIO
    TITLE "3:cjc085_0650"
    INDEX 01 01:03:57
  TRACK 30 AUDIO
    TITLE "0:"
    INDEX 01 01:07:43
  TRACK 31 AUDIO
    TITLE "4:cjc085_0651"
    INDEX 01 01:08:05
  TRACK 32 AUDIO
    TITLE "2:cjc085_0652"
    INDEX 01 01:10:28
  TRACK 33 AUDIO
    TITLE "0:"
    INDEX 01 01:13:63
  TRACK 34 AUDIO
    TITLE "3:cjc085_0653"
    INDEX 01 01:13:73
  TRACK 35 AUDIO
    TITLE "0:"
    INDEX 01 01:17:53
  TRACK 36 AUDIO
    TITLE "4:cjc085_0654"
    INDEX 01 01:18:60
  TRACK 37 AUDIO
    TITLE "2:cjc085_0655"
    INDEX 01 01:20:71
  TRACK 38 AUDIO
    TITLE "0:"
    INDEX 01 01:24:02
  TRACK 39 AUDIO
    TITLE "3:cjc085_0656"
    INDEX 01 01:24:20
  TRACK 40 AUDIO
    TITLE "0:"
    INDEX 01 01:26:58
  TRACK 41 AUDIO
    TITLE "4:cjc085_0657"
    INDEX 01 01:28:43
  TRACK 42 AUDIO
    TITLE "2:cjc085_0658"
    INDEX 01 01:30:28
  TRACK 43 AUDIO
    TITLE "0:"
    INDEX 01 01:35:35
  TRACK 44 AUDIO
    TITLE "3:cjc085_0659"
    INDEX 01 01:36:03
  TRACK 45 AUDIO
    TITLE "0:"
    INDEX 01 01:40:52
  TRACK 46 AUDIO
    TITLE "4:cjc085_0660"
    INDEX 01 01:41:61
  TRACK 47 AUDIO
    TITLE "2:cjc085_0661"
    INDEX 01 01:43:60
  TRACK 48 AUDIO
    TITLE "0:"
    INDEX 01 01:49:51
  TRACK 49 AUDIO
    TITLE "3:cjc085_0662"
    INDEX 01 01:49:61
  TRACK 50 AUDIO
    TITLE "0:"
    INDEX 01 01:53:69
  TRACK 51 AUDIO
    TITLE "4:cjc085_0663"
    INDEX 01 01:54:60
  TRACK 52 AUDIO
    TITLE "2:cjc085_0664"
    INDEX 01 01:57:09
  TRACK 53 AUDIO
    TITLE "0:"
    INDEX 01 02:02:28
  TRACK 54 AUDIO
    TITLE "3:cjc085_0665"
    INDEX 01 02:02:60
  TRACK 55 AUDIO
    TITLE "0:"
    INDEX 01 02:06:67
  TRACK 56 AUDIO
    TITLE "4:cjc085_0666"
    INDEX 01 02:08:17
  TRACK 57 AUDIO
    TITLE "2:cjc085_0667"
    INDEX 01 02:10:42
  TRACK 58 AUDIO
    TITLE "0:"
    INDEX 01 02:14:14
  TRACK 59 AUDIO
    TITLE "3:cjc085_0668"
    INDEX 01 02:14:65
  TRACK 60 AUDIO
    TITLE "0:"
    INDEX 01 02:17:55
  TRACK 61 AUDIO
    TITLE "4:cjc085_0669"
    INDEX 01 02:18:68
  TRACK 62 AUDIO
    TITLE "2:cjc085_0670"
    INDEX 01 02:21:28
  TRACK 63 AUDIO
    TITLE "0:"
    INDEX 01 02:23:21
  TRACK 64 AUDIO
    TITLE "3:cjc085_0671"
    INDEX 01 02:23:72
  TRACK 65 AUDIO
    TITLE "0:"
    INDEX 01 02:26:72
  TRACK 66 AUDIO
    TITLE "4:cjc085_0672"
    INDEX 01 02:27:54
  TRACK 67 AUDIO
    TITLE "2:cjc085_0673"
    INDEX 01 02:29:57
  TRACK 68 AUDIO
    TITLE "0:"
    INDEX 01 02:34:28
  TRACK 69 AUDIO
    TITLE "3:cjc085_0674"
    INDEX 01 02:34:69
  TRACK 70 AUDIO
    TITLE "0:"
    INDEX 01 02:38:69
  TRACK 71 AUDIO
    TITLE "4:cjc085_0675"
    INDEX 01 02:39:67
  TRACK 72 AUDIO
    TITLE "2:cjc085_0676"
    INDEX 01 02:42:14
  TRACK 73 AUDIO
    TITLE "0:"
    INDEX 01 02:45:20
  TRACK 74 AUDIO
    TITLE "3:cjc085_0677"
    INDEX 01 02:45:38
  TRACK 75 AUDIO
    TITLE "0:"
    INDEX 01 02:48:64
  TRACK 76 AUDIO
    TITLE "4:cjc085_0678"
    INDEX 01 02:49:67
  TRACK 77 AUDIO
    TITLE "2:cjc085_0679"
    INDEX 01 02:52:12
  TRACK 78 AUDIO
    TITLE "0:"
    INDEX 01 02:56:51
  TRACK 79 AUDIO
    TITLE "3:cjc085_0680"
    INDEX 01 02:57:20
  TRACK 80 AUDIO
    TITLE "0:"
    INDEX 01 03:00:53
  TRACK 81 AUDIO
    TITLE "4:cjc085_0681"
    INDEX 01 03:01:25
  TRACK 82 AUDIO
    TITLE "2:cjc085_0682"
    INDEX 01 03:03:42
  TRACK 83 AUDIO
    TITLE "0:"
    INDEX 01 03:06:18
  TRACK 84 AUDIO
    TITLE "3:cjc085_0683"
    INDEX 01 03:07:14
  TRACK 85 AUDIO
    TITLE "0:"
    INDEX 01 03:09:29
  TRACK 86 AUDIO
    TITLE "4:cjc085_0684"
    INDEX 01 03:10:40
  TRACK 87 AUDIO
    TITLE "2:cjc085_0685"
    INDEX 01 03:12:58
  TRACK 88 AUDIO
    TITLE "0:"
    INDEX 01 03:15:53
  TRACK 89 AUDIO
    TITLE "3:cjc085_0686"
    INDEX 01 03:16:38
  TRACK 90 AUDIO
    TITLE "0:"
    INDEX 01 03:19:72
  TRACK 91 AUDIO
    TITLE "4:cjc085_0687"
    INDEX 01 03:20:36
  TRACK 92 AUDIO
    TITLE "2:cjc085_0688"
    INDEX 01 03:22:47
  TRACK 93 AUDIO
    TITLE "0:"
    INDEX 01 03:26:31
  TRACK 94 AUDIO
    TITLE "3:cjc085_0689"
    INDEX 01 03:26:66
  TRACK 95 AUDIO
    TITLE "0:"
    INDEX 01 03:31:34
  TRACK 96 AUDIO
    TITLE "4:cjc085_0690"
    INDEX 01 03:31:69
  TRACK 97 AUDIO
    TITLE "2:cjc085_0691"
    INDEX 01 03:34:21
  TRACK 98 AUDIO
    TITLE "0:"
    INDEX 01 03:36:49
  TRACK 99 AUDIO
    TITLE "3:cjc085_0692"
    INDEX 01 03:37:03
  TRACK 100 AUDIO
    TITLE "0:"
    INDEX 01 03:39:67
  TRACK 101 AUDIO
    TITLE "4:cjc085_0693"
    INDEX 01 03:40:27
  TRACK 102 AUDIO
    TITLE "2:cjc085_0694"
    INDEX 01 03:42:67
  TRACK 103 AUDIO
    TITLE "0:"
    INDEX 01 03:48:40
  TRACK 104 AUDIO
    TITLE "3:cjc085_0695"
    INDEX 01 03:48:66
  TRACK 105 AUDIO
    TITLE "0:"
    INDEX 01 03:52:68
  TRACK 106 AUDIO
    TITLE "4:cjc085_0696"
    INDEX 01 03:53:59
  TRACK 107 AUDIO
    TITLE "2:cjc085_0697"
    INDEX 01 03:56:24
  TRACK 108 AUDIO
    TITLE "0:"
    INDEX 01 04:00:44
  TRACK 109 AUDIO
    TITLE "3:cjc085_0698"
    INDEX 01 04:01:16
  TRACK 110 AUDIO
    TITLE "0:"
    INDEX 01 04:04:34
  TRACK 111 AUDIO
    TITLE "4:cjc085_0699"
    INDEX 01 04:05:47
  TRACK 112 AUDIO
    TITLE "2:cjc085_0700"
    INDEX 01 04:08:14
  TRACK 113 AUDIO
    TITLE "0:"
    INDEX 01 04:12:60
  TRACK 114 AUDIO
    TITLE "3:cjc085_0701"
    INDEX 01 04:13:25
  TRACK 115 AUDIO
    TITLE "0:"
    INDEX 01 04:17:54
  TRACK 116 AUDIO
    TITLE "4:cjc085_0702"
    INDEX 01 04:19:47
  TRACK 117 AUDIO
    TITLE "2:cjc085_0703"
    INDEX 01 04:22:26
  TRACK 118 AUDIO
    TITLE "0:"
    INDEX 01 04:28:26
  TRACK 119 AUDIO
    TITLE "3:cjc085_0704"
    INDEX 01 04:28:58
  TRACK 120 AUDIO
    TITLE "0:"
    INDEX 01 04:32:18
  TRACK 121 AUDIO
    TITLE "4:cjc085_0705"
    INDEX 01 04:33:39
  TRACK 122 AUDIO
    TITLE "2:cjc085_0706"
    INDEX 01 04:35:69
  TRACK 123 AUDIO
    TITLE "0:"
    INDEX 01 04:40:24
  TRACK 124 AUDIO
    TITLE "3:cjc085_0707"
    INDEX 01 04:40:71
  TRACK 125 AUDIO
    TITLE "0:"
    INDEX 01 04:44:62
  TRACK 126 AUDIO
    TITLE "4:cjc085_0708"
    INDEX 01 04:45:58
  TRACK 127 AUDIO
    TITLE "2:cjc085_0709"
    INDEX 01 04:48:01
  TRACK 128 AUDIO
    TITLE "0:"
    INDEX 01 04:51:51
  TRACK 129 AUDIO
    TITLE "3:cjc085_0710"
    INDEX 01 04:51:55
  TRACK 130 AUDIO
    TITLE "0:"
    INDEX 01 04:54:14
  TRACK 131 AUDIO
    TITLE "4:cjc085_0711"
    INDEX 01 04:55:35
  TRACK 132 AUDIO
    TITLE "2:cjc085_0712"
    INDEX 01 04:57:59
  TRACK 133 AUDIO
    TITLE "0:"
    INDEX 01 05:01:67
  TRACK 134 AUDIO
    TITLE "3:cjc085_0713"
    INDEX 01 05:02:15
  TRACK 135 AUDIO
    TITLE "0:"
    INDEX 01 05:05:55
  TRACK 136 AUDIO
    TITLE "4:cjc085_0714"
    INDEX 01 05:06:27
  TRACK 137 AUDIO
    TITLE "2:cjc085_0715"
    INDEX 01 05:08:39
  TRACK 138 AUDIO
    TITLE "0:"
    INDEX 01 05:10:56
  TRACK 139 AUDIO
    TITLE "3:cjc085_0716"
    INDEX 01 05:11:10
  TRACK 140 AUDIO
    TITLE "0:"
    INDEX 01 05:13:58
  TRACK 141 AUDIO
    TITLE "4:cjc085_0717"
    INDEX 01 05:15:34
  TRACK 142 AUDIO
    TITLE "2:cjc085_0718"
    INDEX 01 05:17:72
  TRACK 143 AUDIO
    TITLE "0:"
    INDEX 01 05:22:28
  TRACK 144 AUDIO
    TITLE "3:cjc085_0719"
    INDEX 01 05:22:53
  TRACK 145 AUDIO
    TITLE "0:"
    INDEX 01 05:26:37
  TRACK 146 AUDIO
    TITLE "4:cjc085_0720"
    INDEX 01 05:27:13
  TRACK 147 AUDIO
    TITLE "2:cjc085_0721"
    INDEX 01 05:29:26
  TRACK 148 AUDIO
    TITLE "0:"
    INDEX 01 05:36:04
  TRACK 149 AUDIO
    TITLE "3:cjc085_0722"
    INDEX 01 05:36:32
  TRACK 150 AUDIO
    TITLE "0:"
    INDEX 01 05:40:71
  TRACK 151 AUDIO
    TITLE "4:cjc085_0723"
    INDEX 01 05:41:57
  TRACK 152 AUDIO
    TITLE "2:cjc085_0724"
    INDEX 01 05:44:12
  TRACK 153 AUDIO
    TITLE "0:"
    INDEX 01 05:49:72
  TRACK 154 AUDIO
    TITLE "3:cjc085_0725"
    INDEX 01 05:50:24
  TRACK 155 AUDIO
    TITLE "0:"
    INDEX 01 05:54:30
  TRACK 156 AUDIO
    TITLE "4:cjc085_0726"
    INDEX 01 05:54:55
  TRACK 157 AUDIO
    TITLE "2:cjc085_0727"
    INDEX 01 05:57:14
  TRACK 158 AUDIO
    TITLE "0:"
    INDEX 01 06:00:40
  TRACK 159 AUDIO
    TITLE "3:cjc085_0728"
    INDEX 01 06:00:56
  TRACK 160 AUDIO
    TITLE "0:"
    INDEX 01 06:03:68
  TRACK 161 AUDIO
    TITLE "4:cjc085_0729"
    INDEX 01 06:06:13
  TRACK 162 AUDIO
    TITLE "0:"
    INDEX 01 06:07:68
  TRACK 163 AUDIO
    TITLE "4:cjc085_0730"
    INDEX 01 06:08:63
  TRACK 164 AUDIO
    TITLE "2:cjc085_0731"
    INDEX 01 06:11:16
  TRACK 165 AUDIO
    TITLE "0:"
    INDEX 01 06:14:40
  TRACK 166 AUDIO
    TITLE "3:cjc085_0732"
    INDEX 01 06:15:36
  TRACK 167 AUDIO
    TITLE "0:"
    INDEX 01 06:19:38
  TRACK 168 AUDIO
    TITLE "4:cjc085_0733"
    INDEX 01 06:20:39
  TRACK 169 AUDIO
    TITLE "2:cjc085_0734"
    INDEX 01 06:22:46
  TRACK 170 AUDIO
    TITLE "0:"
    INDEX 01 06:25:11
  TRACK 171 AUDIO
    TITLE "3:cjc085_0735"
    INDEX 01 06:25:68
  TRACK 172 AUDIO
    TITLE "0:"
    INDEX 01 06:29:44
  TRACK 173 AUDIO
    TITLE "4:cjc085_0736"
    INDEX 01 06:30:20
  TRACK 174 AUDIO
    TITLE "2:cjc085_0737"
    INDEX 01 06:32:50
  TRACK 175 AUDIO
    TITLE "0:"
    INDEX 01 06:35:25
  TRACK 176 AUDIO
    TITLE "3:cjc085_0738"
    INDEX 01 06:35:50
  TRACK 177 AUDIO
    TITLE "0:"
    INDEX 01 06:38:56
  TRACK 178 AUDIO
    TITLE "4:cjc085_0739"
    INDEX 01 06:40:42
  TRACK 179 AUDIO
    TITLE "2:cjc085_0740"
    INDEX 01 06:42:60
  TRACK 180 AUDIO
    TITLE "0:"
    INDEX 01 06:50:28
  TRACK 181 AUDIO
    TITLE "3:cjc085_0741"
    INDEX 01 06:51:14
  TRACK 182 AUDIO
    TITLE "0:"
    INDEX 01 06:56:13
  TRACK 183 AUDIO
    TITLE "4:cjc085_0742"
    INDEX 01 06:56:66
  TRACK 184 AUDIO
    TITLE "2:cjc085_0743"
    INDEX 01 06:59:06
  TRACK 185 AUDIO
    TITLE "0:"
    INDEX 01 07:01:14
  TRACK 186 AUDIO
    TITLE "3:cjc085_0744"
    INDEX 01 07:01:69
  TRACK 187 AUDIO
    TITLE "0:"
    INDEX 01 07:04:73
  TRACK 188 AUDIO
    TITLE "4:cjc085_0745"
    INDEX 01 07:05:59
  TRACK 189 AUDIO
    TITLE "2:cjc085_0746"
    INDEX 01 07:08:01
  TRACK 190 AUDIO
    TITLE "0:"
    INDEX 01 07:11:07
  TRACK 191 AUDIO
    TITLE "3:cjc085_0747"
    INDEX 01 07:11:32
  TRACK 192 AUDIO
    TITLE "0:"
    INDEX 01 07:13:45
  TRACK 193 AUDIO
    TITLE "4:cjc085_0748"
    INDEX 01 07:14:60
  TRACK 194 AUDIO
    TITLE "2:cjc085_0749"
    INDEX 01 07:17:04
  TRACK 195 AUDIO
    TITLE "0:"
    INDEX 01 07:22:11
  TRACK 196 AUDIO
    TITLE "3:cjc085_0750"
    INDEX 01 07:23:00
  TRACK 197 AUDIO
    TITLE "0:"
    INDEX 01 07:26:05
  TRACK 198 AUDIO
    TITLE "4:cjc085_0751"
    INDEX 01 07:26:71
  TRACK 199 AUDIO
    TITLE "2:cjc085_0752"
    INDEX 01 07:29:24
  TRACK 200 AUDIO
    TITLE "0:"
    INDEX 01 07:34:49
  TRACK 201 AUDIO
    TITLE "3:cjc085_0753"
    INDEX 01 07:35:43
  TRACK 202 AUDIO
    TITLE "0:"
    INDEX 01 07:39:31
  TRACK 203 AUDIO
    TITLE "4:cjc085_0754"
    INDEX 01 07:41:32
  TRACK 204 AUDIO
    TITLE "0:"
    INDEX 01 07:44:48
  TRACK 205 AUDIO
    TITLE "4:cjc085_0755"
    INDEX 01 07:45:57
  TRACK 206 AUDIO
    TITLE "2:cjc085_0756"
    INDEX 01 07:48:14
  TRACK 207 AUDIO
    TITLE "0:"
    INDEX 01 07:52:00
  TRACK 208 AUDIO
    TITLE "3:cjc085_0757"
    INDEX 01 07:52:29
  TRACK 209 AUDIO
    TITLE "0:"
    INDEX 01 07:57:58
  TRACK 210 AUDIO
    TITLE "4:cjc085_0758"
    INDEX 01 07:58:42
  TRACK 211 AUDIO
    TITLE "2:cjc085_0759"
    INDEX 01 08:00:62
  TRACK 212 AUDIO
    TITLE "0:"
    INDEX 01 08:03:29
  TRACK 213 AUDIO
    TITLE "3:cjc085_0760"
    INDEX 01 08:03:45
  TRACK 214 AUDIO
    TITLE "0:"
    INDEX 01 08:06:04
  TRACK 215 AUDIO
    TITLE "4:cjc085_0761"
    INDEX 01 08:07:31
  TRACK 216 AUDIO
    TITLE "2:cjc085_0762"
    INDEX 01 08:09:57
  TRACK 217 AUDIO
    TITLE "0:"
    INDEX 01 08:14:56
  TRACK 218 AUDIO
    TITLE "3:cjc085_0763"
    INDEX 01 08:15:11
  TRACK 219 AUDIO
    TITLE "0:"
    INDEX 01 08:19:15
  TRACK 220 AUDIO
    TITLE "4:cjc085_0764"
    INDEX 01 08:20:00
  TRACK 221 AUDIO
    TITLE "2:cjc085_0765"
    INDEX 01 08:22:19
  TRACK 222 AUDIO
    TITLE "0:"
    INDEX 01 08:28:00
  TRACK 223 AUDIO
    TITLE "3:cjc085_0766"
    INDEX 01 08:28:43
  TRACK 224 AUDIO
    TITLE "0:"
    INDEX 01 08:33:32
  TRACK 225 AUDIO
    TITLE "4:cjc085_0767"
    INDEX 01 08:34:06
  TRACK 226 AUDIO
    TITLE "2:cjc085_0768"
    INDEX 01 08:36:29
  TRACK 227 AUDIO
    TITLE "0:"
    INDEX 01 08:40:64
  TRACK 228 AUDIO
    TITLE "3:cjc085_0769"
    INDEX 01 08:41:51
  TRACK 229 AUDIO
    TITLE "0:"
    INDEX 01 08:46:00
  TRACK 230 AUDIO
    TITLE "4:cjc085_0770"
    INDEX 01 08:46:37
  TRACK 231 AUDIO
    TITLE "2:cjc085_0771"
    INDEX 01 08:48:67
  TRACK 232 AUDIO
    TITLE "0:"
    INDEX 01 08:51:42
  TRACK 233 AUDIO
    TITLE "3:cjc085_0772"
    INDEX 01 08:52:00
  TRACK 234 AUDIO
    TITLE "0:"
    INDEX 01 08:55:14
  TRACK 235 AUDIO
    TITLE "4:cjc085_0773"
    INDEX 01 08:56:14
  TRACK 236 AUDIO
    TITLE "2:cjc085_0774"
    INDEX 01 08:58:32
  TRACK 237 AUDIO
    TITLE "0:"
    INDEX 01 09:02:12
  TRACK 238 AUDIO
    TITLE "3:cjc085_0775"
    INDEX 01 09:02:46
  TRACK 239 AUDIO
    TITLE "0:"
    INDEX 01 09:06:16
  TRACK 240 AUDIO
    TITLE "4:cjc085_0776"
    INDEX 01 09:07:21
  TRACK 241 AUDIO
    TITLE "0:"
    INDEX 01 09:09:61
  TRACK 242 AUDIO
    TITLE "4:cjc085_0777"
    INDEX 01 09:10:57
  TRACK 243 AUDIO
    TITLE "2:cjc085_0778"
    INDEX 01 09:13:51
  TRACK 244 AUDIO
    TITLE "0:"
    INDEX 01 09:19:32
  TRACK 245 AUDIO
    TITLE "3:cjc085_0779"
    INDEX 01 09:19:46
  TRACK 246 AUDIO
    TITLE "0:"
    INDEX 01 09:23:36
  TRACK 247 AUDIO
    TITLE "4:cjc085_0780"
    INDEX 01 09:24:12
  TRACK 248 AUDIO
    TITLE "2:cjc085_0781"
    INDEX 01 09:26:17
  TRACK 249 AUDIO
    TITLE "0:"
    INDEX 01 09:29:11
  TRACK 250 AUDIO
    TITLE "3:cjc085_0782"
    INDEX 01 09:30:03
  TRACK 251 AUDIO
    TITLE "0:"
    INDEX 01 09:32:60
  TRACK 252 AUDIO
    TITLE "4:cjc085_0783"
    INDEX 01 09:33:52
  TRACK 253 AUDIO
    TITLE "2:cjc085_0784"
    INDEX 01 09:35:69
  TRACK 254 AUDIO
    TITLE "0:"
    INDEX 01 09:41:40
  TRACK 255 AUDIO
    TITLE "3:cjc085_0785"
    INDEX 01 09:42:00
  TRACK 256 AUDIO
    TITLE "0:"
    INDEX 01 09:46:06
